<svg width="30" height="30" viewBox="0 0 30 30" fill="none" xmlns="http://www.w3.org/2000/svg">
<path d="M15 0C6.7125 0 0 6.88685 0 15.3806C0 22.1775 4.2975 27.9413 10.2563 29.9735C11.0063 30.1182 11.2812 29.6422 11.2812 29.2339C11.2812 28.8687 11.2688 27.9009 11.2625 26.6187C7.09 27.5461 6.21 24.5553 6.21 24.5553C5.5275 22.7801 4.54125 22.3053 4.54125 22.3053C3.1825 21.3519 4.64625 21.3714 4.64625 21.3714C6.1525 21.4784 6.94375 22.9562 6.94375 22.9562C8.28125 25.3079 10.455 24.6283 11.3125 24.2357C11.4475 23.2405 11.8338 22.5636 12.2625 22.1788C8.93125 21.794 5.43 20.4714 5.43 14.5785C5.43 12.8998 6.01125 11.5277 6.97375 10.4516C6.805 10.0629 6.29875 8.499 7.105 6.38077C7.105 6.38077 8.36125 5.96861 11.23 7.95771C12.43 7.61597 13.705 7.44641 14.98 7.43858C16.255 7.44641 17.53 7.61597 18.73 7.95771C21.58 5.96861 22.8362 6.38077 22.8362 6.38077C23.6425 8.499 23.1362 10.0629 22.9862 10.4516C23.9425 11.5277 24.5238 12.8998 24.5238 14.5785C24.5238 20.4871 21.0175 21.7875 17.68 22.1658C18.205 22.6275 18.6925 23.5705 18.6925 25.0118C18.6925 27.07 18.6737 28.7239 18.6737 29.2235C18.6737 29.6265 18.9363 30.1078 19.705 29.9539C25.7062 27.9348 30 22.1671 30 15.3806C30 6.88685 23.2838 0 15 0Z" fill="#94A1B2"/>
</svg>
