<svg width="30" height="30" viewBox="0 0 30 30" fill="none" xmlns="http://www.w3.org/2000/svg">
<path d="M28.1507 0H17.8353C16.8157 0 15.9862 0.829564 15.9862 1.84911C15.9862 2.86866 16.8157 3.69822 17.8353 3.69822H23.6866L13.926 13.4588C13.5766 13.808 13.3843 14.2723 13.3843 14.7664C13.3843 15.2605 13.5765 15.7246 13.9258 16.0735C14.2751 16.4232 14.7393 16.6156 15.2334 16.6156C15.7272 16.6156 16.1916 16.4233 16.5411 16.0739L26.3016 6.31318V12.1645C26.3016 13.1841 27.1311 14.0136 28.1507 14.0136C29.1702 14.0136 29.9998 13.1841 29.9998 12.1645V1.84911C29.9998 0.829564 29.1702 0 28.1507 0Z" fill="#94A1B2"/>
<path d="M21.2527 26.8301H3.16989V8.74717H16.7699L19.9398 5.57727H1.58494C0.709632 5.57727 0 6.28691 0 7.16222V28.415C0 29.2903 0.709632 30 1.58494 30H22.8377C23.713 30 24.4226 29.2903 24.4226 28.415V10.0601L21.2527 13.23V26.8301Z" fill="#94A1B2"/>
</svg>
