<svg width="30" height="30" viewBox="0 0 30 30" fill="none" xmlns="http://www.w3.org/2000/svg">
<path d="M27.2863 0H2.71374C1.215 0 0 1.215 0 2.71374V27.2862C0 28.785 1.215 30 2.71374 30H27.2862C28.785 30 30 28.785 30 27.2862V2.71374C30 1.215 28.785 0 27.2863 0ZM9.28327 25.904C9.28327 26.3402 8.92971 26.6937 8.49353 26.6937H5.13181C4.69563 26.6937 4.34207 26.3402 4.34207 25.904V11.8118C4.34207 11.3756 4.69563 11.022 5.13181 11.022H8.49353C8.92971 11.022 9.28327 11.3756 9.28327 11.8118V25.904ZM6.81267 9.69361C5.04887 9.69361 3.61901 8.26374 3.61901 6.49995C3.61901 4.73615 5.04887 3.30628 6.81267 3.30628C8.57647 3.30628 10.0063 4.73615 10.0063 6.49995C10.0063 8.26374 8.57654 9.69361 6.81267 9.69361ZM26.8516 25.9676C26.8516 26.3686 26.5264 26.6937 26.1254 26.6937H22.5181C22.1171 26.6937 21.7919 26.3686 21.7919 25.9676V19.3575C21.7919 18.3715 22.0812 15.0365 19.215 15.0365C16.9918 15.0365 16.5408 17.3192 16.4503 18.3436V25.9676C16.4503 26.3686 16.1252 26.6937 15.7242 26.6937H12.2352C11.8342 26.6937 11.5091 26.3686 11.5091 25.9676V11.7481C11.5091 11.3471 11.8342 11.022 12.2352 11.022H15.7242C16.1252 11.022 16.4503 11.3471 16.4503 11.7481V12.9776C17.2747 11.7404 18.4998 10.7855 21.1083 10.7855C26.8846 10.7855 26.8516 16.1821 26.8516 19.1472V25.9676Z" fill="#94A1B2"/>
</svg>
