<svg width="158" height="56" viewBox="0 0 158 56" fill="none" xmlns="http://www.w3.org/2000/svg">
<path d="M16.1702 0.0531571V10.7856C14.6594 9.15713 12.6974 8.33306 10.2644 8.33306C7.4783 8.33306 5.10421 9.37295 3.18139 11.4331C1.25856 13.4933 0.297154 16.0636 0.297154 19.144C0.297154 22.2245 1.25856 24.7948 3.18139 26.8549C5.10421 28.9347 7.4783 29.955 10.2644 29.955C12.6385 29.955 14.6006 29.1505 16.1702 27.5024V29.386H22.6058V0.0531571H16.1702ZM11.4417 24.2454C10.0486 24.2454 8.91061 23.7745 8.00806 22.8327C7.10551 21.8909 6.65424 20.6352 6.65424 19.1048C6.65424 17.6136 7.10551 16.3971 8.00806 15.4553C8.91061 14.5136 10.0486 14.0427 11.4417 14.0427C12.8544 14.0427 14.012 14.5136 14.9538 15.4553C15.8759 16.3971 16.3468 17.6136 16.3468 19.1048C16.3468 20.6352 15.8759 21.8713 14.9538 22.8131C14.0316 23.7745 12.8544 24.2454 11.4417 24.2454ZM37.4586 29.955C39.9308 29.955 42.0695 29.3664 43.8353 28.1891C45.6012 27.0119 46.8176 25.6973 47.4651 24.2061L41.677 22.5188C40.8922 23.9118 39.5384 24.5986 37.5763 24.5986C34.6529 24.5986 32.9459 23.4213 32.475 21.0668H47.6221C47.7202 20.4586 47.7791 19.7523 47.7791 18.9478C47.7791 15.887 46.798 13.3559 44.8752 11.3546C42.9524 9.35333 40.3428 8.33306 37.0466 8.33306C33.8092 8.33306 31.1996 9.37295 29.1983 11.4135C27.197 13.454 26.1964 16.044 26.1964 19.1833C26.1964 22.3814 27.2363 24.9713 29.3161 26.9726C31.3958 28.974 34.1035 29.955 37.4586 29.955ZM32.475 17.2016C32.6319 16.2598 33.1028 15.4553 33.9073 14.749C34.7117 14.0623 35.7516 13.7091 37.0073 13.7091C38.2631 13.7091 39.303 14.0623 40.127 14.7294C40.9511 15.4161 41.4024 16.2402 41.5201 17.2016H32.475ZM64.7117 8.90206L59.8457 22.0675L55.0191 8.90206H47.9556L56.2355 29.386H63.4756L71.7358 8.90206H64.7117ZM74.1492 29.386H80.5847V19.3795C80.5847 17.8098 80.9379 16.5541 81.6443 15.6516C82.3506 14.749 83.312 14.2781 84.5481 14.2781C86.9811 14.2781 88.2172 15.7693 88.2172 18.732V29.386H94.6331V17.4566C94.6331 14.6509 93.966 12.4338 92.6318 10.7856C91.2976 9.15713 89.2963 8.33306 86.6475 8.33306C84.1557 8.33306 82.1348 9.23561 80.5847 11.0211V0.0531571H74.1492V29.386ZM74.7182 28.817V0.622155H80.0157V12.5907C81.7031 10.1382 83.9006 8.90206 86.6475 8.90206C89.0216 8.90206 90.8463 9.64764 92.1413 11.1192C93.4362 12.5907 94.0837 14.7098 94.0837 17.4566V28.817H88.7665V18.732C88.7665 17.1231 88.3937 15.887 87.6482 15.0237C86.9026 14.1604 85.8823 13.7091 84.5481 13.7091C83.155 13.7091 82.0563 14.2192 81.2322 15.2395C80.4082 16.2598 80.0157 17.6529 80.0157 19.3795V28.817H74.7182ZM98.0471 19.144C98.0471 22.2245 99.087 24.7948 101.167 26.8549C103.247 28.9347 105.876 29.955 109.054 29.955C112.233 29.955 114.882 28.9347 116.961 26.8549C119.041 24.7948 120.081 22.2245 120.081 19.144C120.081 16.0636 119.041 13.4933 116.961 11.4331C114.882 9.37295 112.233 8.33306 109.054 8.33306C105.876 8.33306 103.247 9.37295 101.167 11.4331C99.087 13.4933 98.0471 16.0636 98.0471 19.144ZM98.6161 19.144C98.6161 16.2009 99.5971 13.7484 101.579 11.8059C103.56 9.88309 106.052 8.90206 109.054 8.90206C112.056 8.90206 114.548 9.88309 116.53 11.8059C118.511 13.7484 119.512 16.2009 119.512 19.144C119.512 22.0871 118.511 24.5397 116.53 26.4821C114.548 28.4246 112.056 29.386 109.054 29.386C106.052 29.386 103.56 28.4246 101.579 26.4821C99.5971 24.5397 98.6161 22.0871 98.6161 19.144ZM103.717 19.144C103.717 20.8118 104.208 22.1656 105.209 23.1859C106.19 24.2061 107.485 24.7163 109.054 24.7163C110.624 24.7163 111.919 24.2061 112.92 23.1859C113.901 22.1656 114.411 20.8118 114.411 19.144C114.411 17.4959 113.901 16.1421 112.92 15.1022C111.919 14.0819 110.624 13.5521 109.054 13.5521C107.485 13.5521 106.19 14.0819 105.209 15.1022C104.208 16.1421 103.717 17.4959 103.717 19.144ZM104.286 19.144C104.286 17.6725 104.718 16.4756 105.581 15.5338C106.445 14.592 107.602 14.1211 109.054 14.1211C110.506 14.1211 111.664 14.592 112.527 15.5338C113.39 16.4756 113.842 17.6725 113.842 19.144C113.842 20.6156 113.39 21.8124 112.527 22.7542C111.664 23.696 110.506 24.1669 109.054 24.1669C107.602 24.1669 106.445 23.696 105.581 22.7542C104.718 21.8124 104.286 20.6156 104.286 19.144ZM121.788 23.5979C122.318 25.3441 123.534 26.8353 125.418 28.091C127.301 29.3467 129.499 29.955 132.03 29.955C134.698 29.955 136.896 29.3271 138.603 28.0322C140.29 26.7568 141.154 25.1283 141.154 23.127C141.154 22.1852 140.997 21.3808 140.683 20.6744C140.369 19.9681 139.898 19.3991 139.27 18.9478C138.642 18.4965 138.014 18.1237 137.386 17.8491C136.759 17.5744 135.974 17.3193 135.032 17.0446L130.303 15.73C129.519 15.4553 129.126 15.0629 129.126 14.5136C129.126 14.1604 129.342 13.8465 129.774 13.611C130.205 13.3756 130.715 13.2382 131.304 13.2382C132.834 13.2382 134.071 13.8857 134.993 15.161L140.624 13.5521C139.957 11.9433 138.78 10.6875 137.131 9.74574C135.464 8.80395 133.541 8.33306 131.343 8.33306C129.008 8.33306 127.007 8.9413 125.339 10.1578C123.652 11.3743 122.828 12.885 122.828 14.6705C122.828 17.437 124.555 19.3402 128.008 20.3801L132.913 21.832C134.188 22.2245 134.836 22.7346 134.836 23.4017C134.836 23.8137 134.6 24.1669 134.129 24.4612C133.659 24.7555 133.031 24.8929 132.265 24.8929C131.108 24.8929 130.107 24.6182 129.283 24.0688C128.459 23.5194 127.87 22.8131 127.517 21.9105L121.788 23.5979ZM122.494 23.9707L127.203 22.5973C128.243 24.5005 129.931 25.4422 132.265 25.4422C133.148 25.4422 133.894 25.2657 134.502 24.8732C135.091 24.4808 135.405 23.9903 135.405 23.4017C135.405 22.4599 134.62 21.7732 133.07 21.3023L128.165 19.87C124.967 18.8693 123.377 17.1427 123.377 14.6705C123.377 13.1009 124.143 11.747 125.712 10.6091C127.262 9.47106 129.146 8.90206 131.343 8.90206C133.266 8.90206 134.973 9.29447 136.504 10.0597C138.014 10.8249 139.113 11.8648 139.819 13.199L135.209 14.5136C134.208 13.2971 132.913 12.6692 131.304 12.6692C130.558 12.6692 129.911 12.8458 129.381 13.199C128.832 13.5521 128.577 13.9838 128.577 14.5136C128.577 15.3376 129.087 15.9262 130.146 16.2402L134.875 17.5744C136.798 18.1434 138.23 18.8105 139.172 19.5561C140.114 20.3016 140.585 21.4985 140.585 23.127C140.585 24.9517 139.78 26.4429 138.191 27.6201C136.602 28.7974 134.541 29.386 132.03 29.386C129.872 29.386 127.91 28.8955 126.124 27.8752C124.339 26.8549 123.122 25.56 122.494 23.9707ZM142.37 14.5136H145.549V21.989C145.549 24.4023 146.137 26.2859 147.354 27.6594C148.57 29.0328 150.375 29.6999 152.789 29.6999C154.437 29.6999 156.124 29.3664 157.812 28.6993L156.281 23.5979C155.594 23.9511 154.868 24.1277 154.103 24.1277C152.691 24.1277 151.984 23.4213 151.984 21.989V14.5136H157.498V8.90206H151.984V2.46649H145.549V8.90206H142.37V14.5136ZM142.939 13.9642V9.45143H146.118V3.03549H151.415V9.45143H156.929V13.9642H151.415V21.989C151.415 23.7941 152.298 24.677 154.103 24.677C154.81 24.677 155.418 24.5789 155.928 24.3631L157.125 28.3853C155.614 28.8955 154.162 29.1505 152.789 29.1505C148.335 29.1505 146.118 26.7764 146.118 21.989V13.9642H142.939ZM101.622 51.7867L106.199 47.5497C107.475 46.3736 108.424 45.2966 109.019 44.3189C109.615 43.3411 109.926 42.25 109.926 41.0455C109.926 39.0333 109.26 37.4745 107.928 36.3551C106.596 35.2356 104.853 34.6688 102.699 34.6688C100.758 34.6688 99.1284 35.2498 97.8106 36.4118C96.4785 37.5737 95.7133 38.9483 95.5008 40.5495L99.0717 41.5698C99.2701 40.5779 99.7094 39.7702 100.39 39.1608C101.056 38.5515 101.849 38.2397 102.784 38.2397C103.776 38.2397 104.556 38.5232 105.123 39.0616C105.689 39.6001 105.973 40.337 105.973 41.258C105.973 41.9382 105.76 42.5617 105.363 43.1427C104.952 43.7237 104.329 44.4039 103.479 45.1974L95.5575 52.6511V55.386H110.238V51.7867H101.622ZM120.427 55.7969C123.062 55.7969 125.117 54.8192 126.591 52.8495C128.064 50.894 128.815 48.3433 128.815 45.2258C128.815 42.0941 128.064 39.5576 126.591 37.6021C125.117 35.6466 123.062 34.6688 120.427 34.6688C117.791 34.6688 115.736 35.6466 114.248 37.6021C112.76 39.5576 112.024 42.0941 112.024 45.2258C112.024 48.3433 112.76 50.894 114.248 52.8495C115.736 54.8192 117.791 55.7969 120.427 55.7969ZM120.427 52.1693C118.981 52.1693 117.876 51.56 117.125 50.313C116.36 49.0801 115.991 47.3939 115.991 45.2399C115.991 43.086 116.36 41.3998 117.125 40.1528C117.876 38.9199 118.981 38.2964 120.427 38.2964C121.872 38.2964 122.977 38.9199 123.728 40.1528C124.465 41.3998 124.848 43.086 124.848 45.2399C124.848 47.3939 124.465 49.0801 123.728 50.313C122.977 51.56 121.872 52.1693 120.427 52.1693ZM136.397 51.7867L140.974 47.5497C142.249 46.3736 143.199 45.2966 143.794 44.3189C144.389 43.3411 144.701 42.25 144.701 41.0455C144.701 39.0333 144.035 37.4745 142.703 36.3551C141.371 35.2356 139.628 34.6688 137.474 34.6688C135.532 34.6688 133.903 35.2498 132.585 36.4118C131.253 37.5737 130.488 38.9483 130.275 40.5495L133.846 41.5698C134.044 40.5779 134.484 39.7702 135.164 39.1608C135.83 38.5515 136.623 38.2397 137.559 38.2397C138.551 38.2397 139.33 38.5232 139.897 39.0616C140.464 39.6001 140.747 40.337 140.747 41.258C140.747 41.9382 140.534 42.5617 140.138 43.1427C139.727 43.7237 139.103 44.4039 138.253 45.1974L130.332 52.6511V55.386H145.012V51.7867H136.397ZM152.934 35.0656L146.784 38.2397L147.733 41.6265L152.296 39.5151V55.386H156.335V35.0656H152.934Z" fill="#FFFFFE"/>
</svg>
