<svg width="159" height="71" viewBox="0 0 159 71" fill="none" xmlns="http://www.w3.org/2000/svg">
<path d="M17.8711 10.8008V22.207C16.3086 20.2148 14.1406 19.1992 11.3672 19.1992C8.53516 19.1992 6.15234 20.2148 4.23828 22.2461C2.32422 24.2773 1.36719 26.8164 1.36719 29.8828C1.36719 32.9297 2.32422 35.4688 4.23828 37.5C6.15234 39.5508 8.53516 40.5664 11.3672 40.5664C14.1211 40.5664 16.2891 39.5508 17.8711 37.5195V40H23.2031V10.8008H17.8711ZM12.2852 35.8398C10.625 35.8398 9.25781 35.293 8.20312 34.1602C7.12891 33.0469 6.60156 31.6016 6.60156 29.8438C6.60156 28.125 7.12891 26.6992 8.20312 25.5859C9.25781 24.4922 10.625 23.9258 12.2852 23.9258C13.9062 23.9258 15.2734 24.4922 16.3867 25.6055C17.4805 26.7383 18.0469 28.1445 18.0469 29.8438C18.0469 31.582 17.4805 33.0078 16.3867 34.1406C15.2734 35.2734 13.9062 35.8398 12.2852 35.8398ZM38.1445 40.5664C40.5859 40.5664 42.6562 40 44.3555 38.8281C46.0547 37.6758 47.2461 36.3281 47.9102 34.8047L43.1445 33.3984C42.207 35.1953 40.5664 36.0742 38.2227 36.0742C36.4648 36.0742 35.0781 35.6641 34.1016 34.8242C33.1055 33.9844 32.5195 32.8711 32.3438 31.4844H48.0664C48.1445 31.0547 48.1836 30.4297 48.1836 29.6094C48.1836 26.6211 47.2461 24.1406 45.3711 22.168C43.4961 20.1953 40.957 19.1992 37.7344 19.1992C34.5898 19.1992 32.0312 20.2148 30.0781 22.2461C28.125 24.2773 27.1484 26.8164 27.1484 29.8828C27.1484 33.0859 28.1641 35.6836 30.1953 37.6367C32.2266 39.5898 34.8828 40.5664 38.1445 40.5664ZM32.3438 28.1641C32.5 26.9531 33.0469 25.8984 34.0234 25C35 24.1211 36.2109 23.6719 37.6953 23.6719C39.2188 23.6719 40.4492 24.1016 41.4062 24.9609C42.3438 25.8203 42.8906 26.8945 43.0273 28.1641H32.3438ZM65.625 19.7656L60.0781 34.1602L54.5117 19.7656H48.7109L57.0703 40H63.0273L71.3867 19.7656H65.625ZM73.9648 40H80.3711V30.0391C80.3711 28.4766 80.7227 27.2266 81.4258 26.3281C82.1289 25.4297 83.0859 24.9609 84.3164 24.9609C86.7383 24.9609 87.9688 26.4453 87.9688 29.3945V40H94.3555V28.125C94.3555 25.332 93.6914 23.125 92.3633 21.4844C91.0352 19.8633 89.043 19.043 86.4062 19.043C83.9258 19.043 81.9141 19.9414 80.3711 21.7188V10.8008H73.9648V40ZM74.5312 39.4336V11.3672H79.8047V23.2812C81.4844 20.8398 83.6719 19.6094 86.4062 19.6094C88.7695 19.6094 90.5859 20.3516 91.875 21.8164C93.1641 23.2812 93.8086 25.3906 93.8086 28.125V39.4336H88.5156V29.3945C88.5156 27.793 88.1445 26.5625 87.4023 25.7031C86.6602 24.8438 85.6445 24.3945 84.3164 24.3945C82.9297 24.3945 81.8359 24.9023 81.0156 25.918C80.1953 26.9336 79.8047 28.3203 79.8047 30.0391V39.4336H74.5312ZM97.7539 29.8047C97.7539 32.8711 98.7891 35.4297 100.859 37.4805C102.93 39.5508 105.547 40.5664 108.711 40.5664C111.875 40.5664 114.512 39.5508 116.582 37.4805C118.652 35.4297 119.688 32.8711 119.688 29.8047C119.688 26.7383 118.652 24.1797 116.582 22.1289C114.512 20.0781 111.875 19.043 108.711 19.043C105.547 19.043 102.93 20.0781 100.859 22.1289C98.7891 24.1797 97.7539 26.7383 97.7539 29.8047ZM98.3203 29.8047C98.3203 26.875 99.2969 24.4336 101.27 22.5C103.242 20.5859 105.723 19.6094 108.711 19.6094C111.699 19.6094 114.18 20.5859 116.152 22.5C118.125 24.4336 119.121 26.875 119.121 29.8047C119.121 32.7344 118.125 35.1758 116.152 37.1094C114.18 39.043 111.699 40 108.711 40C105.723 40 103.242 39.043 101.27 37.1094C99.2969 35.1758 98.3203 32.7344 98.3203 29.8047ZM103.398 29.8047C103.398 31.4648 103.887 32.8125 104.883 33.8281C105.859 34.8438 107.148 35.3516 108.711 35.3516C110.273 35.3516 111.562 34.8438 112.559 33.8281C113.535 32.8125 114.043 31.4648 114.043 29.8047C114.043 28.1641 113.535 26.8164 112.559 25.7812C111.562 24.7656 110.273 24.2383 108.711 24.2383C107.148 24.2383 105.859 24.7656 104.883 25.7812C103.887 26.8164 103.398 28.1641 103.398 29.8047ZM103.965 29.8047C103.965 28.3398 104.395 27.1484 105.254 26.2109C106.113 25.2734 107.266 24.8047 108.711 24.8047C110.156 24.8047 111.309 25.2734 112.168 26.2109C113.027 27.1484 113.477 28.3398 113.477 29.8047C113.477 31.2695 113.027 32.4609 112.168 33.3984C111.309 34.3359 110.156 34.8047 108.711 34.8047C107.266 34.8047 106.113 34.3359 105.254 33.3984C104.395 32.4609 103.965 31.2695 103.965 29.8047ZM121.387 34.2383C121.914 35.9766 123.125 37.4609 125 38.7109C126.875 39.9609 129.062 40.5664 131.582 40.5664C134.238 40.5664 136.426 39.9414 138.125 38.6523C139.805 37.3828 140.664 35.7617 140.664 33.7695C140.664 32.832 140.508 32.0312 140.195 31.3281C139.883 30.625 139.414 30.0586 138.789 29.6094C138.164 29.1602 137.539 28.7891 136.914 28.5156C136.289 28.2422 135.508 27.9883 134.57 27.7148L129.863 26.4062C129.082 26.1328 128.691 25.7422 128.691 25.1953C128.691 24.8438 128.906 24.5312 129.336 24.2969C129.766 24.0625 130.273 23.9258 130.859 23.9258C132.383 23.9258 133.613 24.5703 134.531 25.8398L140.137 24.2383C139.473 22.6367 138.301 21.3867 136.66 20.4492C135 19.5117 133.086 19.043 130.898 19.043C128.574 19.043 126.582 19.6484 124.922 20.8594C123.242 22.0703 122.422 23.5742 122.422 25.3516C122.422 28.1055 124.141 30 127.578 31.0352L132.461 32.4805C133.73 32.8711 134.375 33.3789 134.375 34.043C134.375 34.4531 134.141 34.8047 133.672 35.0977C133.203 35.3906 132.578 35.5273 131.816 35.5273C130.664 35.5273 129.668 35.2539 128.848 34.707C128.027 34.1602 127.441 33.457 127.09 32.5586L121.387 34.2383ZM122.09 34.6094L126.777 33.2422C127.812 35.1367 129.492 36.0742 131.816 36.0742C132.695 36.0742 133.438 35.8984 134.043 35.5078C134.629 35.1172 134.941 34.6289 134.941 34.043C134.941 33.1055 134.16 32.4219 132.617 31.9531L127.734 30.5273C124.551 29.5312 122.969 27.8125 122.969 25.3516C122.969 23.7891 123.73 22.4414 125.293 21.3086C126.836 20.1758 128.711 19.6094 130.898 19.6094C132.812 19.6094 134.512 20 136.035 20.7617C137.539 21.5234 138.633 22.5586 139.336 23.8867L134.746 25.1953C133.75 23.9844 132.461 23.3594 130.859 23.3594C130.117 23.3594 129.473 23.5352 128.945 23.8867C128.398 24.2383 128.145 24.668 128.145 25.1953C128.145 26.0156 128.652 26.6016 129.707 26.9141L134.414 28.2422C136.328 28.8086 137.754 29.4727 138.691 30.2148C139.629 30.957 140.098 32.1484 140.098 33.7695C140.098 35.5859 139.297 37.0703 137.715 38.2422C136.133 39.4141 134.082 40 131.582 40C129.434 40 127.48 39.5117 125.703 38.4961C123.926 37.4805 122.715 36.1914 122.09 34.6094ZM141.875 25.1953H145.039V32.6367C145.039 35.0391 145.625 36.9141 146.836 38.2812C148.047 39.6484 149.844 40.3125 152.246 40.3125C153.887 40.3125 155.566 39.9805 157.246 39.3164L155.723 34.2383C155.039 34.5898 154.316 34.7656 153.555 34.7656C152.148 34.7656 151.445 34.0625 151.445 32.6367V25.1953H156.934V19.6094H151.445V13.2031H145.039V19.6094H141.875V25.1953ZM142.441 24.6484V20.1562H145.605V13.7695H150.879V20.1562H156.367V24.6484H150.879V32.6367C150.879 34.4336 151.758 35.3125 153.555 35.3125C154.258 35.3125 154.863 35.2148 155.371 35L156.562 39.0039C155.059 39.5117 153.613 39.7656 152.246 39.7656C147.812 39.7656 145.605 37.4023 145.605 32.6367V24.6484H142.441Z" fill="white"/>
<path d="M104.152 62.8994H111.574V66H98.9277V63.644L105.751 57.2231C106.484 56.5396 107.025 55.9495 107.375 55.4531C107.725 54.9486 107.9 54.4074 107.9 53.8296C107.9 53.0321 107.656 52.4014 107.167 51.9375C106.687 51.4655 106.016 51.2295 105.153 51.2295C104.356 51.2295 103.668 51.494 103.09 52.0229C102.513 52.5438 102.134 53.2355 101.955 54.0981L98.8789 53.2192C99.0661 51.8358 99.7293 50.6476 100.869 49.6548C102.008 48.6538 103.412 48.1533 105.08 48.1533C106.944 48.1533 108.445 48.6375 109.584 49.606C110.732 50.5662 111.306 51.9131 111.306 53.6465C111.306 54.68 111.045 55.62 110.524 56.4663C110.012 57.3045 109.202 58.2323 108.095 59.2495L104.152 62.8994ZM125.661 63.8149C124.392 65.5076 122.622 66.354 120.351 66.354C118.089 66.354 116.315 65.5076 115.029 63.8149C113.751 62.1222 113.112 59.9331 113.112 57.2476C113.112 54.5457 113.751 52.3566 115.029 50.6802C116.315 48.9956 118.089 48.1533 120.351 48.1533C122.622 48.1533 124.392 48.9956 125.661 50.6802C126.939 52.3566 127.578 54.5457 127.578 57.2476C127.578 59.9331 126.939 62.1222 125.661 63.8149ZM117.507 61.6299C118.158 62.696 119.106 63.229 120.351 63.229C121.604 63.229 122.552 62.696 123.195 61.6299C123.838 60.5638 124.16 59.1071 124.16 57.2598C124.16 55.4043 123.838 53.9435 123.195 52.8774C122.552 51.8114 121.604 51.2783 120.351 51.2783C119.106 51.2783 118.158 51.8114 117.507 52.8774C116.856 53.9435 116.53 55.4043 116.53 57.2598C116.53 59.1071 116.856 60.5638 117.507 61.6299ZM134.108 62.8994H141.53V66H128.884V63.644L135.708 57.2231C136.44 56.5396 136.981 55.9495 137.331 55.4531C137.681 54.9486 137.856 54.4074 137.856 53.8296C137.856 53.0321 137.612 52.4014 137.124 51.9375C136.643 51.4655 135.972 51.2295 135.109 51.2295C134.312 51.2295 133.624 51.494 133.046 52.0229C132.469 52.5438 132.09 53.2355 131.911 54.0981L128.835 53.2192C129.022 51.8358 129.685 50.6476 130.825 49.6548C131.964 48.6538 133.368 48.1533 135.036 48.1533C136.9 48.1533 138.401 48.6375 139.541 49.606C140.688 50.5662 141.262 51.9131 141.262 53.6465C141.262 54.68 141.001 55.62 140.48 56.4663C139.968 57.3045 139.158 58.2323 138.051 59.2495L134.108 62.8994ZM155.617 63.8149C154.348 65.5076 152.578 66.354 150.307 66.354C148.045 66.354 146.271 65.5076 144.985 63.8149C143.707 62.1222 143.068 59.9331 143.068 57.2476C143.068 54.5457 143.707 52.3566 144.985 50.6802C146.271 48.9956 148.045 48.1533 150.307 48.1533C152.578 48.1533 154.348 48.9956 155.617 50.6802C156.895 52.3566 157.534 54.5457 157.534 57.2476C157.534 59.9331 156.895 62.1222 155.617 63.8149ZM147.463 61.6299C148.114 62.696 149.062 63.229 150.307 63.229C151.56 63.229 152.508 62.696 153.151 61.6299C153.794 60.5638 154.116 59.1071 154.116 57.2598C154.116 55.4043 153.794 53.9435 153.151 52.8774C152.508 51.8114 151.56 51.2783 150.307 51.2783C149.062 51.2783 148.114 51.8114 147.463 52.8774C146.812 53.9435 146.486 55.4043 146.486 57.2598C146.486 59.1071 146.812 60.5638 147.463 61.6299Z" fill="white"/>
</svg>
