<svg width="158" height="56" viewBox="0 0 707 251" fill="none" xmlns="http://www.w3.org/2000/svg">
<path d="M71.9141 0.603516V48.6797C65.1465 41.3848 56.3574 37.6934 45.459 37.6934C32.9785 37.6934 22.4316 42.3516 13.8184 51.5801C5.20508 60.8086 0.898438 72.3223 0.898438 86.1211C0.898438 99.9199 5.20508 111.434 13.8184 120.662C22.4316 129.891 32.9785 134.549 45.459 134.549C56.0938 134.549 64.8828 130.857 71.8262 123.562V132H100.654V0.603516H71.9141ZM50.6445 108.973C44.4043 108.973 39.3066 106.863 35.2637 102.645C31.2207 98.4258 29.1992 92.8887 29.1992 86.0332C29.1992 79.2656 31.2207 73.8164 35.2637 69.5977C39.3066 65.3789 44.4043 63.2695 50.6445 63.2695C56.9727 63.2695 62.2461 65.3789 66.377 69.5977C70.5078 73.8164 72.6172 79.2656 72.6172 86.0332C72.6172 92.8008 70.5078 98.3379 66.377 102.645C62.2461 106.951 56.9727 109.061 50.5566 109.061L50.6445 108.973ZM167.275 134.549C178.438 134.549 187.93 131.912 195.84 126.639C203.75 121.365 209.111 115.389 212.012 108.797L186.084 101.238C182.656 107.479 176.504 110.555 167.715 110.555C154.619 110.555 146.973 105.281 144.775 94.7344H212.627C213.066 92.0098 213.33 88.8457 213.33 85.2422C213.33 71.5312 209.023 60.1934 200.41 51.2285C191.797 42.2637 180.107 37.7812 165.342 37.7812C150.84 37.7812 139.15 42.3516 130.186 51.4922C121.221 60.6328 116.738 72.2344 116.738 86.2969C116.738 100.623 121.396 112.225 130.713 121.189C140.029 130.154 152.158 134.637 167.188 134.637L167.275 134.549ZM144.863 77.5078C145.566 73.2891 147.676 69.5977 151.279 66.5215C154.883 63.4453 159.541 61.8633 165.166 61.8633C170.791 61.8633 175.449 63.3574 179.141 66.4336C182.832 69.5098 184.854 73.2012 185.293 77.5078H144.863ZM289.355 40.2422L267.559 99.2168L245.938 40.2422H214.297L251.387 132H283.818L320.82 40.2422H289.355ZM331.631 132H360.459V87.1758C360.459 80.0566 362.041 74.5195 365.205 70.4766C368.369 66.4336 372.676 64.4121 378.213 64.4121C389.199 64.4121 394.648 71.0918 394.648 84.3633V132.088H423.389V78.6504C423.389 66.082 420.4 56.1504 414.424 48.8555C408.447 41.5605 399.482 37.8691 387.617 37.8691C376.455 37.8691 367.402 41.9121 360.459 49.9102V0.779297H331.631V132ZM334.18 129.627V3.32812H357.91V56.9414C365.469 45.9551 375.4 40.418 387.617 40.418C398.252 40.418 406.426 43.7578 412.227 50.3496C418.027 56.9414 420.928 66.4336 420.928 78.8262V129.715H397.109V84.5391C397.109 77.332 395.439 71.7949 392.1 67.9277C388.76 64.0605 384.102 62.127 378.125 62.127C371.885 62.127 366.963 64.4121 363.271 68.9824C359.58 73.5527 357.734 79.7051 357.734 87.5273V129.803L334.18 129.627ZM438.682 86.1211C438.682 99.9199 443.34 111.434 452.656 120.662C461.973 129.891 473.75 134.549 487.988 134.549C502.227 134.549 514.004 129.891 523.32 120.662C532.637 111.434 537.295 99.9199 537.295 86.1211C537.295 72.3223 532.637 60.8086 523.32 51.5801C514.004 42.3516 502.227 37.7812 487.988 37.7812C473.75 37.7812 461.973 42.4395 452.656 51.668C443.34 60.8965 438.682 72.4102 438.682 86.209V86.1211ZM441.23 86.209C441.23 73.0254 445.625 62.127 454.502 53.4258C463.379 44.7246 474.541 40.418 487.988 40.418C501.436 40.418 512.598 44.7246 521.475 53.4258C530.352 62.127 534.746 73.1133 534.746 86.2969C534.746 99.4805 530.264 110.467 521.387 119.168C512.51 127.869 501.348 132.264 487.9 132.264C474.453 132.264 463.291 127.957 454.414 119.256C445.537 110.555 441.055 99.5684 441.055 86.3848L441.23 86.209ZM463.906 86.4727C463.906 93.9434 466.104 100.008 470.586 104.578C475.068 109.148 480.781 111.434 487.812 111.434C494.844 111.434 500.557 109.148 505.039 104.578C509.521 100.008 511.719 94.0312 511.719 86.5605C511.719 79.0898 509.521 73.0254 505.039 68.3672C500.557 63.709 494.756 61.4238 487.725 61.4238C480.693 61.4238 474.893 63.709 470.41 68.3672C465.928 73.0254 463.73 79.0898 463.73 86.5605L463.906 86.4727ZM466.279 86.5605C466.279 79.9688 468.213 74.6074 472.08 70.3887C475.947 66.1699 481.133 64.0605 487.637 64.0605C494.141 64.0605 499.326 66.1699 503.193 70.3887C507.061 74.6074 508.994 79.9688 508.994 86.5605C508.994 93.1523 507.061 98.6016 503.193 102.82C499.326 107.039 494.141 109.148 487.637 109.148C481.133 109.148 475.947 107.039 472.08 102.82C468.213 98.6016 466.279 93.2402 466.279 86.6484V86.5605ZM545.029 106.072C547.402 113.895 552.852 120.574 561.289 126.199C569.727 131.824 579.57 134.637 590.908 134.637C602.949 134.637 612.793 131.736 620.439 126.023C628.086 120.311 631.865 113.016 631.865 104.139C631.865 99.9199 631.162 96.2285 629.756 93.0645C628.35 89.9004 626.24 87.3516 623.428 85.3301C620.615 83.3086 617.803 81.7266 614.99 80.4961C612.178 79.2656 608.662 78.0352 604.443 76.8926L583.262 71.0039C579.746 69.7734 577.988 67.9277 577.988 65.5547C577.988 63.8848 578.955 62.5664 580.889 61.5117C582.822 60.457 585.107 59.9297 587.744 59.9297C594.688 59.9297 600.225 62.8301 604.355 68.543L629.58 61.3359C626.592 54.1289 621.406 48.416 613.936 44.1973C606.465 39.9785 597.852 37.8691 588.008 37.8691C577.549 37.8691 568.584 40.5938 561.113 46.043C553.643 51.4922 549.863 58.2598 549.863 66.2578C549.863 78.6504 557.598 87.1758 573.066 91.834L595.039 98.3379C600.752 100.008 603.652 102.381 603.652 105.369C603.652 107.215 602.598 108.797 600.488 110.115C598.379 111.434 595.566 112.137 592.139 112.137C586.953 112.137 582.471 110.906 578.779 108.445C575.088 105.984 572.451 102.732 570.869 98.7773L545.029 106.072ZM548.369 108.006L569.463 101.854C574.121 110.379 581.68 114.598 592.139 114.598C596.094 114.598 599.434 113.719 602.158 111.961C604.883 110.203 606.201 108.006 606.201 105.369C606.201 101.15 602.686 97.9863 595.742 95.9648L573.77 89.5488C559.443 85.0664 552.324 77.332 552.324 66.3457C552.324 59.3145 555.84 53.25 562.783 48.1523C569.727 43.0547 578.164 40.5059 588.008 40.5059C596.621 40.5059 604.355 42.2637 611.123 45.6914C617.891 49.1191 622.812 53.8652 625.889 59.8418L605.234 65.7305C600.752 60.1934 594.951 57.4688 587.744 57.4688C584.404 57.4688 581.504 58.2598 579.131 59.8418C576.758 61.4238 575.527 63.4453 575.527 65.8184C575.527 69.5098 577.9 72.0586 582.559 73.5527L603.74 79.5293C612.441 82.0781 618.857 85.0664 623.076 88.4062C627.295 91.7461 629.404 97.1074 629.404 104.402C629.404 112.576 625.801 119.256 618.682 124.529C611.562 129.803 602.334 132.439 590.996 132.439C581.416 132.439 572.627 130.154 564.629 125.584C556.631 121.014 551.182 115.213 548.281 108.094L548.369 108.006ZM637.227 65.3789H651.465V98.8652C651.465 109.676 654.189 118.113 659.639 124.266C665.088 130.418 673.174 133.494 683.984 133.494C691.455 133.494 698.926 132 706.484 129.012L699.629 106.16C696.553 107.742 693.301 108.533 689.873 108.533C683.545 108.533 680.381 105.369 680.381 98.9531V65.4668H705.078V40.3301H680.381V11.502H651.553V40.3301H637.314L637.227 65.3789ZM639.863 63.0059V42.791H654.102V14.0508H677.832V42.791H702.529V63.0059H677.832V98.9531C677.832 106.951 681.875 110.994 689.873 110.994C693.037 110.994 695.762 110.555 698.047 109.588L703.408 127.605C696.641 129.891 690.137 131.033 683.896 131.033C663.945 131.033 654.014 120.311 654.014 98.9531V63.0059H639.863ZM433.877 232.877L454.38 213.897C460.156 208.629 464.346 203.805 467.012 199.425C469.678 195.045 471.011 190.157 471.011 184.762C471.011 175.748 468.027 168.766 462.061 163.751C456.094 158.736 448.286 156.261 438.574 156.261C429.878 156.261 422.578 158.863 416.675 164.068C410.771 169.273 407.344 175.494 406.392 182.667L422.388 187.237C423.34 182.73 425.308 179.112 428.291 176.383C431.274 173.653 434.829 172.32 438.955 172.32C443.462 172.32 446.953 173.526 449.492 175.938C452.031 178.351 453.301 181.651 453.301 185.777C453.301 188.761 452.412 191.554 450.571 194.156C448.73 196.759 445.938 199.869 442.129 203.424L406.646 236.812V249.063H472.407V232.94L433.877 232.877ZM518.11 250.841C529.917 250.841 539.121 246.461 545.723 237.638C552.324 228.814 555.625 217.452 555.625 203.487C555.625 189.459 552.324 178.097 545.723 169.337C539.121 160.577 529.917 156.197 518.11 156.197C506.304 156.197 497.1 160.577 490.435 169.337C483.77 178.097 480.405 189.522 480.405 203.551C480.405 217.516 483.706 228.878 490.371 237.701C497.036 246.524 506.24 250.904 518.047 250.904L518.11 250.841ZM518.047 234.654C511.572 234.654 506.621 231.861 503.257 226.339C499.893 220.816 498.179 213.263 498.179 203.614C498.179 193.966 499.893 186.412 503.257 180.89C506.621 175.367 511.572 172.574 518.047 172.574C524.521 172.574 529.409 175.367 532.773 180.89C536.138 186.412 537.788 194.029 537.788 203.678C537.788 213.326 536.138 220.943 532.773 226.466C529.409 231.988 524.458 234.781 517.983 234.781L518.047 234.654ZM589.648 232.877L610.151 213.897C615.928 208.629 620.117 203.805 622.783 199.425C625.449 195.045 626.782 190.157 626.782 184.762C626.782 175.748 623.799 168.766 617.832 163.751C611.865 158.736 604.058 156.261 594.346 156.261C585.649 156.261 578.35 158.863 572.446 164.068C566.543 169.273 563.115 175.494 562.163 182.667L578.159 187.237C579.111 182.73 581.079 179.112 584.062 176.383C587.046 173.653 590.601 172.32 594.727 172.32C599.233 172.32 602.725 173.526 605.264 175.938C607.803 178.351 609.072 181.651 609.072 185.777C609.072 188.761 608.184 191.554 606.343 194.156C604.502 196.759 601.709 199.869 597.9 203.424L562.417 236.812V249.063H628.179V232.94L589.648 232.877ZM665.82 232.877L686.323 213.897C692.1 208.629 696.289 203.805 698.955 199.425C701.621 195.045 702.954 190.157 702.954 184.762C702.954 175.748 699.971 168.766 694.004 163.751C688.037 158.736 680.229 156.261 670.518 156.261C661.821 156.261 654.521 158.863 648.618 164.068C642.715 169.273 639.287 175.494 638.335 182.667L654.331 187.237C655.283 182.73 657.251 179.112 660.234 176.383C663.218 173.653 666.772 172.32 670.898 172.32C675.405 172.32 678.896 173.526 681.436 175.938C683.975 178.351 685.244 181.651 685.244 185.777C685.244 188.761 684.355 191.554 682.515 194.156C680.674 196.759 677.881 199.869 674.072 203.424L638.589 236.812V249.063H704.351V232.94L665.82 232.877Z" fill="#FFFFFE"/>
</svg>
